<svg id="Layer_1" data-name="Layer 1" xmlns="http://www.w3.org/2000/svg" width="46" height="90.9" viewBox="0 0 46 90.9"><title>rocket</title><path d="M41.9,67.3l-6.7-11a48.6,48.6,0,0,0,2.2-13.8V40.7c-.7-12.4-5.5-16.8-9-20.4a16.2,16.2,0,0,1-3.9-5.2h-.1a3.3,3.3,0,0,0,1.5-.5,2,2,0,0,0,1-1.9l-.2-.4a4,4,0,0,0-2.5-.5,9.6,9.6,0,0,1,0-2.4c.1-.4.1-.4.7-.5H25c.5-.1.7-.3.7-.5A1.2,1.2,0,0,0,25.5,7s-.1-.2-.1-.1V6.6a17.1,17.1,0,0,1-1.4-4.9c0-1.2-.3-1.5-.5-1.6h-.6c-.1.1-.5.3-.5,1.6s-.3,2-1.5,5h-.1V7a1.5,1.5,0,0,0-.4.9c0,.2.1.3.1.4a1,1,0,0,0,.8.5h.1c.6.1.6.1.6.5a7.1,7.1,0,0,1,.1,1.4v1a4.4,4.4,0,0,0-2.6.5l-.2.4a2.1,2.1,0,0,0,1,1.9,3.3,3.3,0,0,0,1.5.5h0a17.2,17.2,0,0,1-4.1,5.3c-3.5,3.6-8.3,8-9,20.3v1.8a48.6,48.6,0,0,0,2.2,13.8l-6.7,11L0,90.9H4.6l4.3-15,7.2-6h.2l.8.3c.2.7.3,1.5.4,2s.2,1.3,3.6,1.5V90.9h3.8V73.8c3.5-.2,3.7-1.1,3.8-1.5s.2-1.3.3-2l.8-.3H30l7.1,6,4.3,15H46Z" fill="#b4fff4"/></svg>